<svg width="375" height="105" viewBox="0 0 375 105" fill="none" xmlns="http://www.w3.org/2000/svg">
<path fill-rule="evenodd" clip-rule="evenodd" d="M0.166034 104.602C0.0711576 104.602 0 81.0721 0 52.3007V-9.91821e-05H21.3473H42.7183L42.576 1.11471C42.4574 2.13463 40.5598 22.3908 40.5598 22.6517C40.5598 22.7229 36.6699 22.7703 31.9023 22.7703H23.2448V31.1907V39.611H30.7638H38.2591L38.1168 47.2485C38.0219 51.4706 37.9507 56.4753 37.9507 58.3966V61.907H30.5978H23.2448V81.0958V100.308L22.0114 100.546C19.6395 101.02 0.30835 104.602 0.166034 104.602ZM335.863 4.62503L354.791 3.05956C365.18 2.18195 373.98 1.47038 374.359 1.44666L375 1.42294V14.089V26.7313L372.106 26.8736C370.493 26.9685 367.006 27.0871 364.326 27.1583C361.646 27.2531 359.226 27.348 358.942 27.4192L358.396 27.5141V34.274V41.034H365.512H372.628V51.2332V61.4325H365.749H358.871V69.9714V78.5103H366.935H375V90.2513C375 99.4781 374.929 101.992 374.715 101.992C373.98 102.016 337.334 99.3595 336.646 99.2409L335.863 99.1223V51.8737V4.62503ZM233.277 6.33154C233.514 8.70347 236.218 44.4483 236.171 44.4957C236.147 44.5432 232.66 35.9805 228.415 25.4729C224.193 14.9653 220.635 6.26038 220.54 6.09435C220.398 5.83344 213.851 7.04312 203.106 9.32017L202.086 9.53364V50.3069V91.0802H212.641H223.196L223.078 89.3725C222.841 86.1941 221.963 59.9132 222.058 58.8696C222.129 57.9445 222.841 59.5574 229.577 75.8288C233.657 85.7197 237.12 93.9028 237.214 94.0451C237.357 94.1874 240.654 93.974 246.251 93.4996C251.114 93.0726 255.099 92.6931 255.099 92.6694C255.122 92.6457 255.004 75.5442 254.838 54.6713C254.672 33.7984 254.529 14.0877 254.529 10.8382L254.506 4.97955H243.832H233.135L233.277 6.33154ZM41.8399 36.7654C44.3067 17.0785 52.1103 7.37735 66.2944 6.42858C67.7413 6.33371 69.1644 6.28627 69.4965 6.30999C69.7879 6.35162 70.7736 6.41152 71.7961 6.47366L72.2242 6.49974C79.5297 6.95041 85.7916 10.5794 89.7527 16.6516C93.9036 23.032 95.9197 31.3575 96.5601 44.7351C97.1294 56.6896 95.9909 68.1697 93.4766 75.8547C91.674 81.3575 89.8001 84.5833 86.3609 88.0226C82.1626 92.2209 77.4899 94.1659 70.635 94.5454C64.6104 94.9012 58.5145 93.4069 54.4585 90.6317C46.9158 85.4372 42.6701 75.238 41.4841 59.5359C41.1284 54.6972 41.3418 40.8451 41.8399 36.7654ZM72.1056 50.404C72.1056 34.4172 71.3703 26.9457 69.6388 25.0719C68.951 24.3366 68.8324 24.3129 68.1682 24.7872C66.9586 25.6174 66.1521 29.0804 65.7014 35.3423C65.3931 39.7778 65.3931 60.959 65.7014 65.5843C66.1284 71.9173 67.006 75.7361 68.1682 76.5188C70.8722 78.274 72.1056 70.0909 72.1056 50.404ZM99.6203 49.5502V92.7429H110.507H121.371L121.513 89.7306C121.608 88.0465 121.798 82.5911 121.94 77.5626C122.082 72.5341 122.272 68.1224 122.367 67.7666C122.486 67.2685 123.505 70.4706 126.636 81.2865C128.913 89.0901 130.835 95.5655 130.93 95.6604C131.119 95.8738 153.368 94.1186 153.605 93.8814C153.676 93.7866 151.21 86.0304 148.126 76.5901L142.528 59.4649L143.714 58.4212C147.652 54.9819 150.901 48.3406 151.826 41.7703C152.229 38.9003 151.969 31.7846 151.352 29.1517C148.98 18.8339 142.694 10.8168 134.677 7.82816L134.539 7.7774C133.913 7.54713 133.406 7.36075 132.889 7.20928C130.693 6.56618 128.313 6.55254 115.827 6.48096H115.827H115.827L114.99 6.47617L99.6203 6.38129V49.5502ZM124.075 26.8272C125.759 27.6574 127.135 29.7921 127.87 32.7333C128.368 34.702 128.297 40.9402 127.751 42.9326C126.731 46.6802 124.929 48.8624 122.225 49.6926L121.679 49.8349V37.9753V26.0919L122.462 26.258C122.865 26.3291 123.6 26.59 124.075 26.8272ZM152.513 28.6995V17.6701C152.513 9.01258 152.584 6.64066 152.822 6.64066C153.462 6.61694 198.695 10.2223 199.193 10.3409L199.714 10.4357V21.4652V32.4946H193.547H187.38V62.3808V92.2669H175.995H164.61V60.4832V28.6995H158.562H152.513ZM259.488 52.064V95.1144H271.229H282.97V52.064V9.01369H271.229H259.488V52.064ZM286.007 13.2584C286.221 13.2584 296.918 12.6892 309.774 12.0013C314.717 11.7277 319.323 11.4752 323.127 11.2666C329.218 10.9326 333.254 10.7114 333.327 10.6968C333.422 10.6968 333.493 15.6778 333.493 21.8211V32.9691H327.089H320.685V65.4644V97.9597H309.181H297.677V66.7689V35.5782H291.629H285.58V24.4302C285.58 13.97 285.604 13.2822 286.007 13.2584Z" fill="#F4F4F4"/>
</svg>
